<svg xmlns="http://www.w3.org/2000/svg" viewBox="0 0 512 512">
  <rect width="512" height="170.67" fill="#FF9933"/>
  <rect y="170.67" width="512" height="170.67" fill="#FFFFFF"/>
  <rect y="341.33" width="512" height="170.67" fill="#138808"/>
  <g transform="translate(256, 256)">
    <circle r="60" fill="none" stroke="#000080" stroke-width="4"/>
    <circle r="8" fill="#000080"/>
    <line x1="0" y1="-8" x2="0" y2="-60" stroke="#000080" stroke-width="2"/>
    <line x1="0" y1="-8" x2="0" y2="-60" stroke="#000080" stroke-width="2" transform="rotate(15)"/>
    <line x1="0" y1="-8" x2="0" y2="-60" stroke="#000080" stroke-width="2" transform="rotate(30)"/>
    <line x1="0" y1="-8" x2="0" y2="-60" stroke="#000080" stroke-width="2" transform="rotate(45)"/>
    <line x1="0" y1="-8" x2="0" y2="-60" stroke="#000080" stroke-width="2" transform="rotate(60)"/>
    <line x1="0" y1="-8" x2="0" y2="-60" stroke="#000080" stroke-width="2" transform="rotate(75)"/>
    <line x1="0" y1="-8" x2="0" y2="-60" stroke="#000080" stroke-width="2" transform="rotate(90)"/>
    <line x1="0" y1="-8" x2="0" y2="-60" stroke="#000080" stroke-width="2" transform="rotate(105)"/>
    <line x1="0" y1="-8" x2="0" y2="-60" stroke="#000080" stroke-width="2" transform="rotate(120)"/>
    <line x1="0" y1="-8" x2="0" y2="-60" stroke="#000080" stroke-width="2" transform="rotate(135)"/>
    <line x1="0" y1="-8" x2="0" y2="-60" stroke="#000080" stroke-width="2" transform="rotate(150)"/>
    <line x1="0" y1="-8" x2="0" y2="-60" stroke="#000080" stroke-width="2" transform="rotate(165)"/>
    <line x1="0" y1="-8" x2="0" y2="-60" stroke="#000080" stroke-width="2" transform="rotate(180)"/>
    <line x1="0" y1="-8" x2="0" y2="-60" stroke="#000080" stroke-width="2" transform="rotate(195)"/>
    <line x1="0" y1="-8" x2="0" y2="-60" stroke="#000080" stroke-width="2" transform="rotate(210)"/>
    <line x1="0" y1="-8" x2="0" y2="-60" stroke="#000080" stroke-width="2" transform="rotate(225)"/>
    <line x1="0" y1="-8" x2="0" y2="-60" stroke="#000080" stroke-width="2" transform="rotate(240)"/>
    <line x1="0" y1="-8" x2="0" y2="-60" stroke="#000080" stroke-width="2" transform="rotate(255)"/>
    <line x1="0" y1="-8" x2="0" y2="-60" stroke="#000080" stroke-width="2" transform="rotate(270)"/>
    <line x1="0" y1="-8" x2="0" y2="-60" stroke="#000080" stroke-width="2" transform="rotate(285)"/>
    <line x1="0" y1="-8" x2="0" y2="-60" stroke="#000080" stroke-width="2" transform="rotate(300)"/>
    <line x1="0" y1="-8" x2="0" y2="-60" stroke="#000080" stroke-width="2" transform="rotate(315)"/>
    <line x1="0" y1="-8" x2="0" y2="-60" stroke="#000080" stroke-width="2" transform="rotate(330)"/>
    <line x1="0" y1="-8" x2="0" y2="-60" stroke="#000080" stroke-width="2" transform="rotate(345)"/>
  </g>
</svg>
